<svg width="42" height="41" viewBox="0 0 42 41" fill="none" xmlns="http://www.w3.org/2000/svg">
<path d="M18.3748 35.0206L35.8748 17.9372C36.6925 17.1549 37.3432 16.2221 37.7894 15.1928C38.2355 14.1635 38.4682 13.058 38.474 11.9404C38.4798 10.8227 38.2586 9.71501 37.8231 8.68133C37.3876 7.64765 36.7465 6.7085 35.9369 5.91818C35.1274 5.12787 34.1653 4.50206 33.1064 4.07695C32.0475 3.65185 30.9128 3.43587 29.7679 3.44151C28.623 3.44716 27.4905 3.67431 26.4361 4.10984C25.3817 4.54537 24.4261 5.18063 23.6248 5.97889L6.12476 23.0622C5.30703 23.8445 4.65628 24.7773 4.21013 25.8066C3.76398 26.836 3.53128 27.9414 3.5255 29.0591C3.51972 30.1767 3.74096 31.2844 4.17644 32.3181C4.61192 33.3518 5.25298 34.2909 6.06258 35.0813C6.87217 35.8716 7.83423 36.4974 8.89312 36.9225C9.95201 37.3476 11.0867 37.5636 12.2316 37.5579C13.3766 37.5523 14.509 37.3251 15.5634 36.8896C16.6179 36.4541 17.5734 35.8188 18.3748 35.0206Z" stroke="#F70102" stroke-width="2" stroke-linecap="round" stroke-linejoin="round"/>
<path d="M14.875 14.5205L27.125 26.4788" stroke="#F70102" stroke-width="2" stroke-linecap="round" stroke-linejoin="round"/>
</svg>
