<svg width="41" height="41" viewBox="0 0 41 41" fill="none" xmlns="http://www.w3.org/2000/svg">
<path d="M6.57753 14.7258C6.32819 13.6026 6.36648 12.4347 6.68884 11.3302C7.01121 10.2258 7.60723 9.2206 8.42163 8.4079C9.23603 7.59521 10.2424 7.0013 11.3476 6.68125C12.4527 6.36119 13.6207 6.32535 14.7434 6.57705C15.3613 5.61064 16.2125 4.81534 17.2187 4.26445C18.2248 3.71356 19.3534 3.4248 20.5005 3.4248C21.6475 3.4248 22.7761 3.71356 23.7822 4.26445C24.7884 4.81534 25.6396 5.61064 26.2575 6.57705C27.3819 6.32425 28.5519 6.35993 29.6588 6.68077C30.7657 7.0016 31.7735 7.59716 32.5884 8.41206C33.4033 9.22696 33.9988 10.2347 34.3197 11.3416C34.6405 12.4485 34.6762 13.6185 34.4234 14.7429C35.3898 15.3608 36.1851 16.2121 36.736 17.2182C37.2869 18.2243 37.5756 19.3529 37.5756 20.5C37.5756 21.647 37.2869 22.7756 36.736 23.7818C36.1851 24.7879 35.3898 25.6391 34.4234 26.257C34.6751 27.3797 34.6392 28.5477 34.3192 29.6529C33.9991 30.758 33.4052 31.7644 32.5925 32.5788C31.7798 33.3932 30.7746 33.9892 29.6702 34.3116C28.5658 34.6339 27.3978 34.6722 26.2746 34.4229C25.6575 35.393 24.8056 36.1917 23.7977 36.7451C22.7899 37.2984 21.6587 37.5885 20.509 37.5885C19.3592 37.5885 18.2281 37.2984 17.2202 36.7451C16.2124 36.1917 15.3605 35.393 14.7434 34.4229C13.6207 34.6746 12.4527 34.6387 11.3476 34.3187C10.2424 33.9986 9.23603 33.4047 8.42163 32.592C7.60723 31.7793 7.01121 30.7742 6.68884 29.6697C6.36648 28.5653 6.32819 27.3973 6.57753 26.2741C5.60371 25.6578 4.80158 24.8053 4.24574 23.7957C3.68991 22.7862 3.39844 21.6524 3.39844 20.5C3.39844 19.3475 3.68991 18.2138 4.24574 17.2042C4.80158 16.1947 5.60371 15.3421 6.57753 14.7258Z" stroke="#F70102" stroke-width="2" stroke-linecap="round" stroke-linejoin="round"/>
<path d="M20.5 13.667V27.3337" stroke="#F70102" stroke-width="2" stroke-linecap="round" stroke-linejoin="round"/>
<path d="M13.667 20.5H27.3337" stroke="#F70102" stroke-width="2" stroke-linecap="round" stroke-linejoin="round"/>
</svg>
