<svg width="41" height="41" viewBox="0 0 41 41" fill="none" xmlns="http://www.w3.org/2000/svg">
<path d="M29.042 5.125H32.4587C33.3648 5.125 34.2339 5.48497 34.8746 6.12572C35.5154 6.76647 35.8753 7.63551 35.8753 8.54167V11.9583" stroke="#F70102" stroke-width="2" stroke-linecap="round" stroke-linejoin="round"/>
<path d="M35.8753 29.042V32.4587C35.8753 33.3648 35.5154 34.2339 34.8746 34.8746C34.2339 35.5154 33.3648 35.8753 32.4587 35.8753H29.042" stroke="#F70102" stroke-width="2" stroke-linecap="round" stroke-linejoin="round"/>
<path d="M5.125 11.9583V8.54167C5.125 7.63551 5.48497 6.76647 6.12572 6.12572C6.76647 5.48497 7.63551 5.125 8.54167 5.125H11.9583" stroke="#F70102" stroke-width="2" stroke-linecap="round" stroke-linejoin="round"/>
<path d="M11.9583 35.8753H8.54167C7.63551 35.8753 6.76647 35.5154 6.12572 34.8746C5.48497 34.2339 5.125 33.3648 5.125 32.4587V29.042" stroke="#F70102" stroke-width="2" stroke-linecap="round" stroke-linejoin="round"/>
<path d="M13.3726 22.3276C12.4568 21.3697 11.9477 20.0942 11.9522 18.769C11.9566 17.4437 12.4742 16.1717 13.3964 15.2199C14.3186 14.2681 15.5736 13.7106 16.898 13.6643C18.2225 13.618 19.5134 14.0865 20.4998 14.9715C21.4862 14.0865 22.7771 13.618 24.1015 13.6643C25.426 13.7106 26.681 14.2681 27.6032 15.2199C28.5254 16.1717 29.043 17.4437 29.0474 18.769C29.0519 20.0942 28.5427 21.3697 27.627 22.3276L21.7383 28.5118C21.5788 28.6795 21.3868 28.8131 21.174 28.9043C20.9612 28.9956 20.7322 29.0426 20.5007 29.0426C20.2691 29.0426 20.0401 28.9956 19.8273 28.9043C19.6145 28.8131 19.4225 28.6795 19.263 28.5118L13.3726 22.3276Z" stroke="#F70102" stroke-width="2" stroke-linecap="round" stroke-linejoin="round"/>
</svg>
