<svg width="51" height="51" viewBox="0 0 51 51" fill="none" xmlns="http://www.w3.org/2000/svg">
<path d="M4.25 20.1876C4.25004 17.823 4.96739 15.5139 6.30728 13.5654C7.64718 11.617 9.5466 10.1208 11.7547 9.27449C13.9627 8.42819 16.3756 8.27159 18.6745 8.82537C20.9735 9.37914 23.0504 10.6172 24.6309 12.3761C24.7422 12.4952 24.8768 12.5901 25.0263 12.6549C25.1758 12.7198 25.337 12.7533 25.5 12.7533C25.663 12.7533 25.8242 12.7198 25.9737 12.6549C26.1232 12.5901 26.2578 12.4952 26.3691 12.3761C27.9447 10.6058 30.022 9.3573 32.3247 8.7968C34.6274 8.2363 37.0462 8.39038 39.2591 9.23855C41.472 10.0867 43.3742 11.5887 44.7124 13.5447C46.0505 15.5006 46.7613 17.8178 46.75 20.1876C46.75 25.0539 43.5625 28.6876 40.375 31.8751L28.7045 43.1653C28.3085 43.62 27.8203 43.9853 27.2723 44.2369C26.7243 44.4885 26.1291 44.6206 25.5261 44.6244C24.9231 44.6282 24.3263 44.5037 23.7751 44.2591C23.224 44.0145 22.7312 43.6554 22.3295 43.2057L10.625 31.8751C7.4375 28.6876 4.25 25.0751 4.25 20.1876Z" stroke="#F70102" stroke-width="2" stroke-linecap="round" stroke-linejoin="round"/>
<path d="M6.84277 27.625H20.1878L21.2503 25.5L25.5003 35.0625L29.7503 20.1875L32.9378 27.625H44.1365" stroke="#F70102" stroke-width="2" stroke-linecap="round" stroke-linejoin="round"/>
</svg>
