<svg width="53" height="53" viewBox="0 0 53 53" fill="none" xmlns="http://www.w3.org/2000/svg">
<path d="M30.9164 4.41699V17.667C30.9161 18.4079 31.1021 19.1369 31.4574 19.787L43.6253 42.047C43.9934 42.7197 44.18 43.4766 44.1667 44.2433C44.1535 45.0099 43.9409 45.7599 43.5498 46.4195C43.1588 47.0791 42.6027 47.6255 41.9364 48.0049C41.2701 48.3844 40.5165 48.5838 39.7497 48.5837H13.2497C12.4829 48.5838 11.7293 48.3844 11.063 48.0049C10.3967 47.6255 9.84066 47.0791 9.4496 46.4195C9.05854 45.7599 8.84593 45.0099 8.83269 44.2433C8.81945 43.4766 9.00604 42.7197 9.3741 42.047L21.542 19.787C21.8973 19.1369 22.0834 18.4079 22.0831 17.667V4.41699" stroke="#F70102" stroke-width="2" stroke-linecap="round" stroke-linejoin="round"/>
<path d="M14.25 33.125H38.7493" stroke="#F70102" stroke-width="2" stroke-linecap="round" stroke-linejoin="round"/>
<path d="M18.7705 4.41699H34.2288" stroke="#F70102" stroke-width="2" stroke-linecap="round" stroke-linejoin="round"/>
</svg>
