<svg width="51" height="51" viewBox="0 0 51 51" fill="none" xmlns="http://www.w3.org/2000/svg">
<path d="M42.5 27.625C42.5 38.25 35.0625 43.5625 26.2225 46.6437C25.7596 46.8006 25.2568 46.7931 24.7988 46.6225C15.9375 43.5625 8.5 38.25 8.5 27.625V12.75C8.5 12.1864 8.72388 11.6459 9.1224 11.2474C9.52091 10.8489 10.0614 10.625 10.625 10.625C14.875 10.625 20.1875 8.07498 23.885 4.84498C24.3352 4.46035 24.9079 4.24902 25.5 4.24902C26.0921 4.24902 26.6648 4.46035 27.115 4.84498C30.8338 8.09623 36.125 10.625 40.375 10.625C40.9386 10.625 41.4791 10.8489 41.8776 11.2474C42.2761 11.6459 42.5 12.1864 42.5 12.75V27.625Z" stroke="#F70102" stroke-width="2" stroke-linecap="round" stroke-linejoin="round"/>
<path d="M19.125 25.5H31.875" stroke="#F70102" stroke-width="2" stroke-linecap="round" stroke-linejoin="round"/>
<path d="M25.5 19.125V31.875" stroke="#F70102" stroke-width="2" stroke-linecap="round" stroke-linejoin="round"/>
</svg>
