<svg width="63" height="63" viewBox="0 0 63 63" fill="none" xmlns="http://www.w3.org/2000/svg">
<g clip-path="url(#clip0_419_1119)">
<path d="M13.7102 30.9364C13.3215 30.8336 12.9698 30.6227 12.6962 30.328C12.4225 30.0334 12.2381 29.6671 12.1643 29.2718C12.0905 28.8765 12.1304 28.4684 12.2793 28.0949C12.4283 27.7213 12.6802 27.3977 13.0057 27.1616L38.9363 11.6701C39.1358 11.535 39.3754 11.4718 39.6157 11.4908C39.8559 11.5098 40.0826 11.6099 40.2584 11.7747C40.4343 11.9395 40.5489 12.1592 40.5834 12.3977C40.6179 12.6362 40.5704 12.8794 40.4485 13.0873L33.1966 24.3879C32.997 24.6678 32.8684 24.9919 32.8216 25.3324C32.7748 25.673 32.8114 26.0198 32.9281 26.3431C33.0448 26.6664 33.2382 26.9566 33.4917 27.1887C33.7452 27.4208 34.0512 27.588 34.3835 27.6759L48.7517 31.5258C49.1404 31.6286 49.4921 31.8396 49.7657 32.1342C50.0394 32.4289 50.2238 32.7951 50.2976 33.1904C50.3714 33.5857 50.3315 33.9938 50.1825 34.3674C50.0336 34.7409 49.7817 35.0645 49.4562 35.3006L23.5256 50.7921C23.3261 50.9272 23.0865 50.9904 22.8462 50.9714C22.606 50.9524 22.3793 50.8523 22.2035 50.6875C22.0276 50.5227 21.913 50.303 21.8785 50.0645C21.8439 49.826 21.8915 49.5828 22.0134 49.3749L29.2653 38.0743C29.4649 37.7944 29.5935 37.4703 29.6403 37.1298C29.6871 36.7892 29.6505 36.4424 29.5338 36.1191C29.4171 35.7958 29.2237 35.5057 28.9702 35.2735C28.7167 35.0414 28.4107 34.8742 28.0784 34.7863L13.7102 30.9364Z" stroke="#F70102" stroke-width="2" stroke-linecap="round" stroke-linejoin="round"/>
</g>
<defs>
<clipPath id="clip0_419_1119">
<rect width="51" height="51" fill="white" transform="translate(13.2002) rotate(15)"/>
</clipPath>
</defs>
</svg>
