<svg width="57" height="57" viewBox="0 0 57 57" fill="none" xmlns="http://www.w3.org/2000/svg">
<path d="M40.375 23.75C42.0375 22.0875 44.3887 23.75 46.3125 23.75C47.8872 23.75 49.3974 23.1244 50.5109 22.0109C51.6244 20.8974 52.25 19.3872 52.25 17.8125C52.25 16.2378 51.6244 14.7276 50.5109 13.6141C49.3974 12.5006 47.8872 11.875 46.3125 11.875C45.9976 11.875 45.6955 11.7499 45.4728 11.5272C45.2501 11.3045 45.125 11.0024 45.125 10.6875C45.125 9.11278 44.4994 7.60255 43.3859 6.48905C42.2724 5.37556 40.7622 4.75 39.1875 4.75C37.6128 4.75 36.1026 5.37556 34.9891 6.48905C33.8756 7.60255 33.25 9.11278 33.25 10.6875C33.25 12.6113 34.9125 14.9625 33.25 16.625L16.625 33.25C14.9625 34.9125 12.6113 33.25 10.6875 33.25C9.11278 33.25 7.60255 33.8756 6.48905 34.9891C5.37556 36.1026 4.75 37.6128 4.75 39.1875C4.75 40.7622 5.37556 42.2724 6.48905 43.3859C7.60255 44.4994 9.11278 45.125 10.6875 45.125C11.3525 45.125 11.875 45.6475 11.875 46.3125C11.875 47.8872 12.5006 49.3974 13.6141 50.5109C14.7276 51.6244 16.2378 52.25 17.8125 52.25C19.3872 52.25 20.8974 51.6244 22.0109 50.5109C23.1244 49.3974 23.75 47.8872 23.75 46.3125C23.75 44.3887 22.0875 42.0375 23.75 40.375L40.375 23.75Z" stroke="#F70102" stroke-width="2" stroke-linecap="round" stroke-linejoin="round"/>
</svg>
