<svg width="36" height="36" viewBox="0 0 36 36" fill="none" xmlns="http://www.w3.org/2000/svg">
<path d="M30.5119 9.72559C32.1302 12.1716 32.9958 15.0383 33.0019 17.9711C33.008 20.9039 32.1541 23.7742 30.546 26.2268C28.9379 28.6795 26.646 30.6069 23.954 31.7706C21.2619 32.9344 18.2878 33.2834 15.3994 32.7746" stroke="#F70102" stroke-width="2" stroke-linecap="round" stroke-linejoin="round"/>
<path d="M5.48896 26.2739C3.87075 23.8273 3.00541 20.9599 3.00003 18.0266C2.99464 15.0932 3.84945 12.2227 5.45867 9.77011C7.0679 7.31757 9.3609 5.39068 12.0539 4.22789C14.747 3.06509 17.7219 2.71743 20.6105 3.22793" stroke="#F70102" stroke-width="2" stroke-linecap="round" stroke-linejoin="round"/>
<path d="M18 22.5C20.4853 22.5 22.5 20.4853 22.5 18C22.5 15.5147 20.4853 13.5 18 13.5C15.5147 13.5 13.5 15.5147 13.5 18C13.5 20.4853 15.5147 22.5 18 22.5Z" stroke="#F70102" stroke-width="2" stroke-linecap="round" stroke-linejoin="round"/>
<path d="M28.5 10.5C30.1569 10.5 31.5 9.15685 31.5 7.5C31.5 5.84315 30.1569 4.5 28.5 4.5C26.8431 4.5 25.5 5.84315 25.5 7.5C25.5 9.15685 26.8431 10.5 28.5 10.5Z" stroke="#F70102" stroke-width="2" stroke-linecap="round" stroke-linejoin="round"/>
<path d="M7.5 31.5C9.15685 31.5 10.5 30.1569 10.5 28.5C10.5 26.8431 9.15685 25.5 7.5 25.5C5.84315 25.5 4.5 26.8431 4.5 28.5C4.5 30.1569 5.84315 31.5 7.5 31.5Z" stroke="#F70102" stroke-width="2" stroke-linecap="round" stroke-linejoin="round"/>
</svg>
