<svg width="41" height="41" viewBox="0 0 41 41" fill="none" xmlns="http://www.w3.org/2000/svg">
<path d="M10.25 30.75H23.9167" stroke="#F70102" stroke-width="2" stroke-linecap="round" stroke-linejoin="round"/>
<path d="M5.125 37.583H35.875" stroke="#F70102" stroke-width="2" stroke-linecap="round" stroke-linejoin="round"/>
<path d="M23.9163 37.5837C27.0879 37.5837 30.1295 36.3238 32.3722 34.0811C34.6148 31.8385 35.8747 28.7969 35.8747 25.6253C35.8747 22.4538 34.6148 19.4121 32.3722 17.1695C30.1295 14.9269 27.0879 13.667 23.9163 13.667H22.208" stroke="#F70102" stroke-width="2" stroke-linecap="round" stroke-linejoin="round"/>
<path d="M15.375 23.917H18.7917" stroke="#F70102" stroke-width="2" stroke-linecap="round" stroke-linejoin="round"/>
<path d="M15.3747 20.5C14.4685 20.5 13.5995 20.14 12.9587 19.4993C12.318 18.8585 11.958 17.9895 11.958 17.0833V10.25H22.208V17.0833C22.208 17.9895 21.848 18.8585 21.2073 19.4993C20.5665 20.14 19.6975 20.5 18.7913 20.5H15.3747Z" stroke="#F70102" stroke-width="2" stroke-linecap="round" stroke-linejoin="round"/>
<path d="M20.5003 10.2503V5.12533C20.5003 4.67225 20.3203 4.23773 20 3.91735C19.6796 3.59698 19.2451 3.41699 18.792 3.41699H15.3753C14.9222 3.41699 14.4877 3.59698 14.1674 3.91735C13.847 4.23773 13.667 4.67225 13.667 5.12533V10.2503" stroke="#F70102" stroke-width="2" stroke-linecap="round" stroke-linejoin="round"/>
</svg>
